PathFileType	4	(X/Y/Z)	Patient4_TMGait_0pt6_01_left_16.trc.trc
DataRate	CameraRate	NumFrames	NumMarkers	Units	OrigDataRate	OrigDataStartFrame	OrigNumFrames
83.333333333333	83.333333333333	4	33	mm	83.333333333333	18	       141
Frame#	Time	Sacral			L.Shoulder			Chest			R.Shoulder			Neck			R.ASIS			L.ASIS			R.Thigh.Superior			R.Thigh.Lateral			R.Thigh.Inferior			R.Patella			L.Thigh.Superior			L.Thigh.Lateral			L.Thigh.Inferior			L.Patella			L.Shank.Superior			L.Shank.Lateral			L.Shank.Inferior			R.Shank.Superior			R.Shank.Lateral			R.Shank.Inferior			R.Heel			R.Midfoot.Superior			R.Midfoot.Lateral			R.Toe			L.Heel			L.Midfoot.Lateral			L.Midfoot.Superior			L.Toe			L.Elbow			L.Wrist			R.Elbow			R.Wrist			
		X1	Y1	Z1	X2	Y2	Z2	X3	Y3	Z3	X4	Y4	Z4	X5	Y5	Z5	X6	Y6	Z6	X7	Y7	Z7	X8	Y8	Z8	X9	Y9	Z9	X10	Y10	Z10	X11	Y11	Z11	X12	Y12	Z12	X13	Y13	Z13	X14	Y14	Z14	X15	Y15	Z15	X16	Y16	Z16	X17	Y17	Z17	X18	Y18	Z18	X19	Y19	Z19	X20	Y20	Z20	X21	Y21	Z21	X22	Y22	Z22	X23	Y23	Z23	X24	Y24	Z24	X25	Y25	Z25	X26	Y26	Z26	X27	Y27	Z27	X28	Y28	Z28	X29	Y29	Z29	X30	Y30	Z30	X31	Y31	Z31	X32	Y32	Z32	X33	Y33	Z33	

18	19.694000000000	627.138440296163	1008.507123989264	515.240269101223	767.490702931259	1431.927393909471	308.033587412424	897.615457534744	1364.623834041342	449.389751189668	844.874543952480	1440.699398575806	632.362578399781	776.262540000240	1493.105011150770	460.310000853243	864.060441704137	937.154443472184	599.566775697609	816.301400360031	961.675210708270	328.448967307124	862.529834613923	724.351529264260	568.535158610049	764.404524919116	628.984136743197	634.839513607318	818.688731602537	566.173249065112	548.526895333125	801.035104729987	482.234161571540	551.979681598724	896.809115548589	776.789067979165	366.254902798131	852.226364119467	649.104465306987	290.946350298184	949.632646064838	589.159237972978	361.821753435687	979.246318411814	528.534233143022	360.216750632200	968.838876079076	457.874502621534	349.052041020660	918.627204275775	321.666997207410	296.475836716390	1011.329855928880	232.155337298687	358.468344434969	766.174469011949	397.345152269902	558.931508885752	689.985582428426	298.666153088831	622.009898683360	717.929409914012	202.817718719041	553.308351570965	569.953405711369	42.969509105640	525.534335394797	743.019918471854	95.886651088910	556.578480358461	655.022818560616	36.103285482305	597.484807323392	863.264847735603	41.159426236750	581.778669038894	944.066206140881	44.073815151733	397.720567837164	1021.248044742814	53.773370308212	321.201559124471	1081.968400004180	139.650963973245	341.555470675682	1219.949874990810	123.731954859046	324.271751282564	642.573151807604	1091.307964218300	236.168442880065	613.412420644598	834.233005285945	256.125693895449	1011.001699179075	1142.373362020193	733.022953139569	1216.564545804907	1250.573389966995	641.592822934711	
19	19.706000000000	628.043081392030	1007.418393803656	514.351488498120	767.137702957211	1431.006087635612	306.990482572895	897.409549870620	1363.871326306154	448.301592603033	844.548616861777	1439.844966895349	631.258343942181	775.837709823406	1492.150823473707	459.268322124482	864.495514327681	936.333139533599	598.814252309649	816.950722139880	960.376440223431	327.515315847839	860.966770430039	723.061874430786	568.357728832302	761.609325487801	628.475343221290	634.540802550424	815.523008191637	565.062054303508	548.582106110148	797.046544690014	481.243412764890	551.985462362824	897.048648288396	775.119193320390	365.327175740649	850.907865212851	647.052209540277	290.853774364290	948.632395255343	587.139664747973	360.724462680539	977.713529962490	526.431207230487	359.596948527713	967.259217903083	455.743135036861	348.843509337929	916.558856469060	319.540038383423	297.283439816273	1009.493877330035	230.232104615786	359.036986404684	761.473730795496	396.655343690612	558.981441923008	684.437382648474	298.650697182923	622.201146622758	711.593687660782	202.514015517719	553.453924897786	562.700746752561	43.070374655298	525.599351917716	735.836038969617	95.872403309651	556.751500134083	647.739747669998	36.090111826729	597.519793934404	855.996721903343	41.026372204843	581.843935445386	942.108226949552	43.251478490244	399.653408083761	1018.654754292692	52.084719046782	322.489583474698	1080.236556744746	137.205803266215	342.145759553804	1217.735887508590	119.951039339632	323.860144160041	641.513480808512	1090.843952350568	235.394213977191	612.325068553180	833.719890773438	255.339301229476	1011.818354152208	1141.969374312565	730.772840077417	1215.270373295261	1252.793342906485	638.452188649655	
20	19.718000000000	628.991064237002	1006.229734230046	513.241812325629	766.729799604772	1429.942948842121	305.799702267412	897.154563698442	1363.089997712127	447.090379458554	844.109527103033	1438.924628034586	630.049349705012	775.315489086133	1491.089882868363	458.093520957612	865.025940833531	935.440083463595	598.010325522477	817.867709275657	958.965451810039	326.521054771544	859.696138940430	721.708743274211	568.116540551720	759.142981457914	627.868278411051	634.122113800262	812.753057885154	563.864885417536	548.522167697364	793.438584367672	480.117085041001	551.834304898267	897.877678935734	773.557358250045	364.352349752050	849.973539360231	644.944566424346	290.904105329884	948.146460151354	585.166461667368	359.599405307844	976.512447324152	524.025131040514	359.000543045253	965.647314119459	453.143658578193	348.747037279141	913.582761567261	317.327662858449	298.085383809305	1006.055691418079	227.583508109168	359.663223194645	757.112126095930	395.837168848049	558.908470954009	679.148455332385	298.591109788861	622.300620807326	705.391168485583	202.132930788928	553.531473386301	555.457199490835	43.173595387476	525.664708158034	728.652643089534	95.852811496146	556.899134096902	640.466858537608	36.073034014036	597.550365045912	848.732383525623	40.874548124391	581.914683454099	937.160572953604	42.348475451345	401.330623768857	1013.193317038900	49.906582417343	323.586652602609	1076.296421314994	133.628863538111	342.845952730811	1213.165054288338	113.925776867920	323.591579731589	641.051737688308	1089.972375688252	234.258309541600	612.435355295284	832.716595029578	254.024526422061	1011.904790968566	1141.103955547029	728.748845793738	1213.826619513298	1253.679488198686	635.700952077126	
21	19.730000000000	629.967249463429	1004.943576039665	511.900801718064	766.307031005694	1428.733860764183	304.458465922742	896.871014650859	1362.269573574439	445.770375803412	843.560449050911	1437.930790402503	628.744693143406	774.725434162807	1489.925842821978	456.782906670169	865.640211314937	934.463181969939	597.152644228985	819.047412710306	957.455872136802	325.475414112143	858.743091857066	720.289277596883	567.803031751840	757.034831106111	627.148078113358	633.563201874266	810.412946400275	562.573494939055	548.326296366742	790.243057855347	478.833731687149	551.498495669421	899.184073466252	772.017911919597	363.325764599662	849.357313075114	642.784619164551	291.031601517970	948.048971359954	583.202669916952	358.498677726223	975.507439393686	521.353076021080	358.504210597933	964.005993519438	450.164096393748	348.772999525955	909.975812243887	315.010587480424	298.839438996203	1001.429632081576	224.346328707950	360.364379902877	753.112246236551	394.878957921943	558.683659426340	674.139281456768	298.480011059409	622.277215766463	699.330790423036	201.669445993038	553.520563578160	548.222895327029	43.290999922037	525.730905323575	721.473554939852	95.830157547868	557.014919760238	633.207749988068	36.060551320349	597.576476691535	841.478948080183	40.698592017210	581.994123671303	929.909849644584	41.365124675527	402.700778283879	1005.593151591965	47.381967510751	324.494500834326	1070.720248315806	129.159692328250	343.726225063903	1206.852699858417	106.123751347096	323.631972415292	641.171937737016	1088.697926876746	232.770755889824	613.711200091985	831.238037810510	252.194441269392	1011.276264860626	1139.752502499195	726.953758458139	1212.282105762100	1253.223779765706	633.349272303233	
